<svg width="20" height="20" viewBox="0 0 20 20" fill="none" xmlns="http://www.w3.org/2000/svg">
<g clip-path="url(#clip0_42_12716)">
<path d="M0 0.507812H3.28125V13.6427H0V0.507812Z" fill="#F59E0B"/>
<path d="M20 8.19977C20 7.42233 19.548 6.74881 18.8931 6.42731C19.0672 6.13342 19.1676 5.79086 19.1676 5.42511C19.1676 4.58267 18.6368 3.86215 17.892 3.57971C18.0406 3.30261 18.1252 2.98615 18.1252 2.65045C18.1252 1.56235 17.24 0.677185 16.1519 0.677185H7.20627L4.45312 1.7157V12.5241H5.54459L9.22546 16.7824L9.54178 18.5251C9.64188 19.0761 10.1208 19.476 10.681 19.476H11.358C12.6616 19.476 13.7222 18.4154 13.7222 17.1118C13.7222 16.2924 13.5646 15.4929 13.2536 14.7348L12.5511 12.9477H17.4347C18.5228 12.9477 19.4081 12.0625 19.4081 10.9744C19.4081 10.5669 19.2838 10.1877 19.0712 9.87289C19.6284 9.52377 20 8.90442 20 8.19977Z" fill="#F59E0B"/>
</g>
<defs>
<clipPath id="clip0_42_12716">
<rect width="20" height="20" fill="white"/>
</clipPath>
</defs>
</svg>
