<svg width="20" height="20" viewBox="0 0 20 20" fill="none" xmlns="http://www.w3.org/2000/svg">
<g clip-path="url(#clip0_42_12681)">
<path d="M4.6875 6.7711H0V19.143H4.6875V6.7711Z" fill="#2E4EB1"/>
<path d="M19.5739 11.9421C19.5739 11.4958 19.4258 11.0835 19.1763 10.7515C19.6748 10.3904 20 9.80402 20 9.14289C20 8.04808 19.1093 7.15738 18.0145 7.15738H13.501L14.1291 4.98773V3.94816C14.1291 2.03257 12.5706 0.474098 10.655 0.474098C10.1905 0.474098 9.8127 0.851989 9.8127 1.31644V3.62113C9.49945 4.12246 7.75992 6.07441 5.85938 8.11949V18.373L7.48117 18.9812C8.44512 19.3427 9.4559 19.5259 10.4854 19.5259H16.7362C17.831 19.5259 18.7217 18.6352 18.7217 17.5404C18.7217 17.0943 18.5738 16.6821 18.3245 16.3502C18.8229 15.9891 19.1478 15.4023 19.1478 14.7412C19.1478 14.2949 18.9997 13.8826 18.7502 13.5507C19.2487 13.1896 19.5739 12.6033 19.5739 11.9421Z" fill="#2E4EB1"/>
</g>
<defs>
<clipPath id="clip0_42_12681">
<rect width="20" height="20" fill="white"/>
</clipPath>
</defs>
</svg>
