<svg width="107" height="76" viewBox="0 0 107 76" fill="none" xmlns="http://www.w3.org/2000/svg">
<g clip-path="url(#clip0_49_9118)">
<path fill-rule="evenodd" clip-rule="evenodd" d="M40.9139 8.15649C43.4174 9.59251 45.1078 11.0162 45.831 12.8666C52.263 9.53507 58.9689 11.2911 62.8204 13.1538C64.2283 11.1885 65.0928 10.409 68.4393 9.05093C89.8836 52.7839 19.1059 54.0271 40.9182 8.15649H40.9139Z" fill="#FF9933"/>
<path fill-rule="evenodd" clip-rule="evenodd" d="M71.1396 14.4791C71.1396 14.4791 66.244 19.5175 70.8658 31.8796C73.9598 26.4309 72.5305 18.5738 71.1396 14.4791Z" fill="#DA8103"/>
<path fill-rule="evenodd" clip-rule="evenodd" d="M38.6758 16.1285C38.6758 16.1285 43.6356 24.6707 37.1822 28.9132C35.954 23.2963 37.2849 20.2847 38.6758 16.1285Z" fill="#DA8103"/>
<path fill-rule="evenodd" clip-rule="evenodd" d="M77.0025 40.2823C74.7643 41.9235 72.0255 43.06 68.7859 43.7C74.529 36.7169 71.452 31.4528 70.0527 23.924C66.9244 7.09794 86.5029 5.60037 90.8593 12.8461C92.9648 16.3459 100.253 12.0214 101.412 13.5764C101.96 14.3109 93.9577 18.4343 94.2401 20.9248C93.8635 47.9137 69.0855 47.8399 63.9502 46.6254C70.7973 44.7012 71.9442 44.7463 77.0025 40.2782V40.2823Z" fill="#2DBBC2"/>
<path fill-rule="evenodd" clip-rule="evenodd" d="M37.5374 13.6667C40.9054 19.7882 41.0851 28.0187 33.9941 28.3798C25.9701 28.79 35.081 33.6356 37.1865 36.6717C41.0081 42.1861 23.9202 50.195 18.3869 43.8149C8.28741 32.1626 6.52 17.1542 5.82673 9.23145C9.27597 10.1956 11.7538 12.1855 13.1574 14.4668C12.6824 11.3157 13.3543 7.68465 15.1089 5.33368C15.1516 5.39112 17.959 9.88792 19.6707 11.3732C21.6906 13.1251 30.0612 10.3803 32.3593 8.8745C36.6901 6.03938 38.7057 11.923 37.5332 13.6667H37.5374Z" fill="#8C5926"/>
<path d="M24.9559 36.762C26.7233 39.1745 22.8889 41.7594 21.1215 39.3469C17.9547 35.0224 14.0176 28.7901 14.0262 23.3578C14.039 12.9405 35.9241 10.9424 33.5147 21.6018C32.5604 25.8278 25.816 29.6065 20.0901 28.667C21.3226 31.4323 23.0601 34.1649 24.9559 36.762ZM18.7036 23.3578V23.4932C24.7119 26.673 33.3735 19.14 26.3253 18.9718C23.3767 18.902 18.7079 20.5391 18.7036 23.3578Z" fill="white"/>
<path d="M47.9022 25.0933C51.1461 25.04 56.0632 24.8143 59.6322 24.2235C58.4554 19.9811 49.3102 19.4231 47.9022 25.0933ZM48.2018 29.5778C49.9778 33.6151 57.2314 33.6028 60.7106 30.9195C63.1028 29.0731 66.0428 32.5729 63.6463 34.4192C57.2314 39.3674 44.8168 38.0873 43.2376 29.1921C40.3576 12.9528 64.5279 13.0308 64.468 25.1261C64.4637 26.4104 64.2412 27.793 62.6492 28.191C58.0231 29.348 52.9606 29.4916 48.2018 29.5737V29.5778Z" fill="white"/>
<path d="M78.8341 16.7357C78.2307 13.8267 82.8354 12.9487 83.4388 15.8536C83.6656 16.9449 83.8025 18.0035 83.8667 19.0415C84.8724 18.783 87.179 17.5932 88.1676 19.8375C89.3401 22.5044 85.7154 23.3209 83.6741 23.686C83.0921 28.0515 80.9267 32.3309 83.0023 32.3145C83.9694 32.3063 85.8609 30.423 87.3801 32.4663C90.1618 36.2163 79.9767 39.5684 77.7557 33.254C76.7842 30.4969 78.3206 27.4689 78.9026 23.9486C77.0282 23.8255 73.9085 23.5301 74.4947 20.9248C75.0596 18.4097 77.7771 19.3657 79.1936 19.46C79.1465 18.5738 79.0352 17.6671 78.8384 16.7357H78.8341Z" fill="white"/>
</g>
<path d="M24.6569 70.3125V69.8214C25.5341 69.8214 26.0458 69.6655 26.192 69.3537V56.9598C26.192 56.9598 25.6803 56.9209 24.6569 56.8429V56.3051C24.9656 56.3051 25.5666 56.1414 26.4601 55.814C27.3697 55.471 28.0114 55.2995 28.385 55.2995V56.0712C29.1647 55.5568 30.1394 55.2995 31.309 55.2995C31.845 55.2995 32.373 55.3931 32.8928 55.5801C33.4288 55.7516 33.9568 56.0322 34.4766 56.422C35.0126 56.7961 35.4431 57.3574 35.768 58.1057C36.1091 58.854 36.2797 59.727 36.2797 60.7248C36.2797 62.4552 35.7761 63.7804 34.769 64.7001C33.7618 65.6044 32.4298 66.0565 30.7729 66.0565C29.8307 66.0565 29.0348 65.885 28.385 65.542V69.3537C28.5312 69.6655 29.0429 69.8214 29.9201 69.8214V70.3125H24.6569ZM28.385 64.7937C29.0023 65.1055 29.7495 65.2614 30.6267 65.2614C31.5201 65.2614 32.2999 64.8638 32.9659 64.0688C33.6319 63.2737 33.9649 62.159 33.9649 60.7248C33.9649 59.7738 33.6725 58.7682 33.0877 57.7081C32.5192 56.6325 31.845 56.0946 31.0653 56.0946C29.9444 56.0946 29.051 56.344 28.385 56.8429V64.7937Z" fill="#36383C"/>
<path d="M37.9874 65.8226V65.3315C38.8646 65.3315 39.3763 65.1756 39.5225 64.8638V56.9598C38.5154 56.8819 38.0037 56.8429 37.9874 56.8429V56.3051C38.2961 56.3051 38.8971 56.1414 39.7905 55.814C40.7002 55.471 41.3419 55.2995 41.7155 55.2995V64.8638C41.8617 65.1756 42.3734 65.3315 43.2506 65.3315V65.8226H37.9874ZM40.5459 53.8029C40.1885 53.8029 39.8718 53.6782 39.5956 53.4288C39.3357 53.1637 39.2057 52.8286 39.2057 52.4232C39.2057 52.0647 39.3195 51.7529 39.5469 51.4878C39.7905 51.2228 40.0992 51.0903 40.4728 51.0903C40.8302 51.0903 41.1469 51.2228 41.4231 51.4878C41.6992 51.7529 41.8373 52.088 41.8373 52.4934C41.8373 52.8519 41.7155 53.1637 41.4718 53.4288C41.2282 53.6782 40.9195 53.8029 40.5459 53.8029Z" fill="#36383C"/>
<path d="M54.4244 55.5334V56.0245C53.5797 56.0245 53.0355 56.1726 52.7919 56.4688L50.404 59.8829L53.6447 64.8872C53.8234 65.1834 54.327 65.3315 55.1554 65.3315V65.8226H50.4283V65.3315C50.8182 65.3315 51.1268 65.3081 51.3543 65.2614L49.0882 61.7537L46.7003 65.1678C46.9115 65.277 47.3176 65.3315 47.9186 65.3315V65.8226H43.9225V65.3315C44.7835 65.3315 45.3358 65.1678 45.5794 64.8405L48.4303 60.7715L45.6038 56.3986C45.4414 56.1492 44.9622 56.0245 44.1662 56.0245V55.5334H48.8933V56.0245C48.5034 56.0245 48.1866 56.0478 47.943 56.0946L49.7461 58.9008L51.6467 56.1881C51.4355 56.079 51.0294 56.0245 50.4283 56.0245V55.5334H54.4244Z" fill="#36383C"/>
<path d="M55.8815 65.8226V65.3315C56.7586 65.3315 57.2703 65.1756 57.4165 64.8638V56.9598C56.4094 56.8819 55.8977 56.8429 55.8815 56.8429V56.3051C56.1901 56.3051 56.7911 56.1414 57.6846 55.814C58.5942 55.471 59.2359 55.2995 59.6095 55.2995V64.8638C59.7557 65.1756 60.2674 65.3315 61.1446 65.3315V65.8226H55.8815ZM58.4399 53.8029C58.0825 53.8029 57.7658 53.6782 57.4896 53.4288C57.2297 53.1637 57.0998 52.8286 57.0998 52.4232C57.0998 52.0647 57.2135 51.7529 57.4409 51.4878C57.6846 51.2228 57.9932 51.0903 58.3668 51.0903C58.7242 51.0903 59.041 51.2228 59.3171 51.4878C59.5933 51.7529 59.7313 52.088 59.7313 52.4934C59.7313 52.8519 59.6095 53.1637 59.3658 53.4288C59.1222 53.6782 58.8135 53.8029 58.4399 53.8029Z" fill="#36383C"/>
<path d="M64.7921 60.1869C64.8084 61.4965 65.1982 62.6579 65.9617 63.6712C66.7414 64.669 67.6105 65.1678 68.5689 65.1678C69.9821 65.1678 71.1192 64.6534 71.9802 63.6245L72.565 63.9051C72.0939 64.6534 71.4766 65.199 70.7131 65.542C69.9659 65.885 68.975 66.0565 67.7404 66.0565C67.1232 66.0565 66.5302 65.9707 65.9617 65.7992C65.3931 65.6121 64.8327 65.3159 64.2804 64.9106C63.7281 64.4897 63.2895 63.8739 62.9646 63.0632C62.6397 62.2526 62.4773 61.286 62.4773 60.1635C62.4773 58.7916 62.9159 57.638 63.7931 56.7026C64.6865 55.7672 65.9211 55.2995 67.4968 55.2995C69.2187 55.2995 70.502 55.7672 71.3467 56.7026C72.1914 57.6224 72.6137 58.7838 72.6137 60.1869H64.7921ZM64.8165 59.462H70.2258C70.1283 58.3395 69.8766 57.4821 69.4704 56.8897C69.0806 56.2973 68.3902 56.0011 67.3993 56.0011C66.8308 56.0011 66.2785 56.3207 65.7424 56.9598C65.2226 57.599 64.9139 58.4331 64.8165 59.462Z" fill="#36383C"/>
<path d="M78.5875 65.3549C79.0423 65.3549 79.5377 65.2146 80.0738 64.934C80.6261 64.6534 80.9023 64.2325 80.9023 63.6712C80.9023 62.767 79.9357 61.9875 78.0027 61.3328C77.5316 61.1769 77.1417 61.0288 76.8331 60.8885C76.5407 60.7481 76.2158 60.5533 75.8584 60.3038C75.5011 60.0544 75.233 59.7504 75.0543 59.3918C74.8756 59.0333 74.7863 58.6124 74.7863 58.1291C74.7863 57.256 75.1193 56.5701 75.7853 56.0712C76.4513 55.5568 77.2554 55.2995 78.1976 55.2995C78.7499 55.2995 79.3103 55.4165 79.8789 55.6503C80.4637 55.8841 80.7967 56.0011 80.8779 56.0011C81.0728 56.0011 81.1703 55.8452 81.1703 55.5334H81.7307V58.3395H81.1947C81.0972 57.6848 80.7642 57.1313 80.1956 56.6792C79.6433 56.2271 79.0017 56.0011 78.2707 56.0011C77.7509 56.0011 77.3123 56.118 76.9549 56.3518C76.6138 56.5857 76.4432 56.9053 76.4432 57.3106C76.4432 57.5445 76.492 57.7627 76.5894 57.9654C76.6869 58.1525 76.7843 58.3084 76.8818 58.4331C76.9793 58.5422 77.158 58.6669 77.4179 58.8072C77.694 58.9475 77.8971 59.0489 78.027 59.1112C78.1732 59.158 78.425 59.2437 78.7824 59.3685C79.156 59.4932 79.4078 59.5789 79.5377 59.6257C80.3824 59.9375 81.1053 60.3818 81.7063 60.9586C82.3074 61.5198 82.6079 62.1746 82.6079 62.9229C82.6079 63.8739 82.2099 64.6378 81.414 65.2146C80.618 65.7758 79.6108 66.0565 78.3925 66.0565C77.8077 66.0565 77.2392 65.9239 76.6869 65.6589C76.1346 65.3939 75.8259 65.2614 75.761 65.2614C75.6635 65.2614 75.5498 65.3237 75.4198 65.4485C75.2899 65.5732 75.2249 65.6979 75.2249 65.8226H74.6401V62.5254H75.1762C75.2899 63.3205 75.6716 63.9908 76.3214 64.5365C76.9874 65.0821 77.7428 65.3549 78.5875 65.3549Z" fill="#36383C"/>
<defs>
<clipPath id="clip0_49_9118">
<rect width="95.6114" height="41.6856" fill="white" transform="translate(5.82673 5.3378)"/>
</clipPath>
</defs>
</svg>
