<svg width="64" height="64" viewBox="0 0 64 64" fill="none" xmlns="http://www.w3.org/2000/svg">
<rect width="63.9997" height="64" rx="31.9998" fill="#FFEBF1"/>
<path d="M25.0652 28.8742C24.9416 28.7507 24.7703 28.6796 24.5957 28.6796C24.421 28.6796 24.2498 28.7506 24.1262 28.8742C24.0027 28.9977 23.9316 29.169 23.9316 29.3437C23.9316 29.5183 24.0027 29.6897 24.1262 29.8131C24.2497 29.9366 24.421 30.0078 24.5957 30.0078C24.7703 30.0078 24.9416 29.9367 25.0652 29.8131C25.1887 29.6897 25.2597 29.5183 25.2597 29.3437C25.2597 29.169 25.1887 28.9977 25.0652 28.8742Z" fill="#EB5582"/>
<path d="M47.0077 15H20.5781C19.4796 15 18.5859 15.8937 18.5859 16.9922V28.0156C18.5859 29.1141 19.4796 30.0078 20.5781 30.0078H21.7734C22.1402 30.0078 22.4375 29.7104 22.4375 29.3437C22.4375 28.977 22.1402 28.6796 21.7734 28.6796H20.5781C20.2119 28.6796 19.914 28.3817 19.914 28.0156V16.9922C19.914 16.626 20.2119 16.3281 20.5781 16.3281H47.0077C47.3738 16.3281 47.6717 16.626 47.6717 16.9922V28.0156C47.6717 28.3817 47.3738 28.6796 47.0077 28.6796H42.566C42.3899 28.6796 42.2209 28.7496 42.0964 28.8741L39.9097 31.0608L37.7231 28.8741C37.5986 28.7496 37.4296 28.6796 37.2535 28.6796H32.0748C32.026 28.5543 31.9708 28.4305 31.9084 28.3092C31.4329 27.3854 30.6235 26.7102 29.6296 26.408L28.6695 26.1161C28.3315 26.0132 27.9721 26.1933 27.8519 26.5255L26.3433 30.6951C25.9248 31.8515 25.0996 32.8123 24.0195 33.4004L22.6034 34.1715C22.2553 33.7491 21.7284 33.4793 21.1396 33.4793H16.8962C15.8507 33.4793 15.0002 34.3299 15.0002 35.3753V47.1037C15.0001 48.1493 15.8507 48.9999 16.8962 48.9999H21.1395C21.8005 48.9999 22.3832 48.6597 22.7227 48.1454L23.4003 48.4111C24.3965 48.8019 25.4443 49 26.5146 49H35.4746C36.819 49 37.9127 47.9063 37.9127 46.5619C37.9127 46.1169 37.7923 45.6998 37.5832 45.3403C38.5723 45.0295 39.2918 44.1042 39.2918 43.0138C39.2918 42.5576 39.1655 42.1303 38.9465 41.7647C39.8934 41.4298 40.5738 40.5259 40.5738 39.4657C40.5738 38.3614 39.8355 37.4267 38.8268 37.128C39.0319 36.771 39.1499 36.3579 39.1499 35.9175C39.1499 34.5732 38.0562 33.4794 36.7118 33.4794H31.3868L32.1315 31.2685C32.2707 30.8552 32.3365 30.4302 32.332 30.0078H36.9785L39.4402 32.4696C39.5699 32.5992 39.7398 32.6641 39.9097 32.6641C40.0797 32.6641 40.2497 32.5992 40.3793 32.4696L42.8411 30.0078H47.0077C48.1062 30.0078 48.9999 29.1141 48.9999 28.0156V16.9922C48.9999 15.8937 48.1062 15 47.0077 15ZM21.7075 47.1038C21.7074 47.4169 21.4527 47.6717 21.1395 47.6717H16.8962C16.583 47.6717 16.3283 47.4169 16.3283 47.1038V35.3754C16.3283 35.0622 16.583 34.8074 16.8962 34.8074H18.3538V42.9834C18.3538 43.3501 18.6511 43.6475 19.0178 43.6475C19.3846 43.6475 19.6819 43.3501 19.6819 42.9834V34.8074H21.1395C21.3875 34.8074 21.5984 34.9676 21.6756 35.1896C21.6811 35.2218 21.6891 35.2536 21.6996 35.2852C21.7043 35.3147 21.7075 35.3446 21.7075 35.3754V47.1038ZM36.7118 34.8074C37.3239 34.8074 37.8218 35.3054 37.8218 35.9174C37.8218 36.5295 37.3239 37.0275 36.7118 37.0275H33.1092C32.7425 37.0275 32.4452 37.3248 32.4452 37.6915C32.4452 38.0582 32.7425 38.3556 33.1092 38.3556L38.1358 38.3557C38.7478 38.3557 39.2458 38.8536 39.2458 39.4657C39.2458 40.0778 38.7478 40.5757 38.1358 40.5757H33.1092C32.7425 40.5757 32.4452 40.8731 32.4452 41.2398C32.4452 41.6065 32.7425 41.9039 33.1092 41.9039H36.8537C37.4658 41.9039 37.9637 42.4018 37.9637 43.0138C37.9637 43.6259 37.4658 44.1238 36.8537 44.1238H33.1092C32.7425 44.1238 32.4452 44.4212 32.4452 44.7879C32.4452 45.1546 32.7425 45.4519 33.1092 45.4519H35.4747C36.0868 45.4519 36.5847 45.9499 36.5847 46.562C36.5847 47.174 36.0868 47.6719 35.4747 47.6719H26.5146C25.611 47.6719 24.7264 47.5046 23.8852 47.1748L23.0355 46.8415V35.4485L24.6546 34.5669C26.0199 33.8234 27.0631 32.6089 27.592 31.1469L28.8862 27.5702L29.2432 27.6787C29.8907 27.8756 30.4178 28.3153 30.7275 28.917C31.0372 29.5186 31.0888 30.2032 30.8728 30.8445L29.8331 33.9314C29.7648 34.134 29.7984 34.3571 29.9231 34.5307C30.0479 34.7044 30.2485 34.8074 30.4624 34.8074H36.7118Z" fill="#EB5582"/>
<path d="M45.9585 21.4398C45.8328 21.053 45.5046 20.7765 45.102 20.7181L43.9274 20.5478L43.4018 19.4836C43.2217 19.119 42.8574 18.8925 42.4507 18.8925C42.044 18.8927 41.6793 19.1193 41.4994 19.4841L40.9744 20.5486L39.7998 20.7195C39.3973 20.7782 39.0692 21.0549 38.9437 21.4418C38.8181 21.8286 38.921 22.2453 39.2124 22.5292L40.0625 23.3574L39.8622 24.5273C39.7935 24.9282 39.9553 25.3257 40.2845 25.5647C40.4704 25.6997 40.6878 25.7683 40.9068 25.7683C41.0755 25.7683 41.2451 25.7276 41.4018 25.6451L42.4522 25.0925L43.503 25.6445C43.863 25.8337 44.2911 25.8027 44.6201 25.5635C44.9491 25.3243 45.1107 24.9267 45.0418 24.5258L44.8409 23.3561L45.6907 22.5273C45.9816 22.2432 46.0843 21.8265 45.9585 21.4398ZM43.8128 22.5034C43.5627 22.7472 43.4489 23.0983 43.508 23.4425L43.641 24.2169L42.9451 23.8513C42.6359 23.6891 42.2669 23.6891 41.958 23.8517L41.2626 24.2175L41.3952 23.4431C41.4542 23.0987 41.34 22.7477 41.0898 22.5041L40.5269 21.9557L41.3046 21.8425C41.6503 21.7922 41.9487 21.5752 42.1031 21.262L42.4508 20.5573L42.7987 21.2618C42.9534 21.5749 43.252 21.7917 43.5976 21.8419L44.3753 21.9546L43.8128 22.5034Z" fill="#EB5582"/>
<path d="M37.5108 21.4398C37.385 21.053 37.0569 20.7765 36.6543 20.7181L35.4797 20.5478L34.9541 19.4836C34.774 19.119 34.4097 18.8925 34.003 18.8925C33.5963 18.8927 33.2315 19.1193 33.0516 19.4841L32.5267 20.5486L31.3521 20.7195C30.9496 20.7782 30.6215 21.0549 30.496 21.4418C30.3704 21.8286 30.4733 22.2453 30.7647 22.5292L31.6148 23.3574L31.4145 24.5273C31.3458 24.9282 31.5077 25.3257 31.8368 25.5647C32.0226 25.6997 32.2401 25.7683 32.4591 25.7683C32.6277 25.7683 32.7973 25.7276 32.9539 25.6451L34.0044 25.0925L35.0552 25.6445C35.4153 25.8337 35.8432 25.8027 36.1724 25.5635C36.5013 25.3243 36.6629 24.9267 36.594 24.5258L36.3931 23.3561L37.2429 22.5273C37.5339 22.2432 37.6367 21.8266 37.5108 21.4398ZM35.3651 22.5034C35.115 22.7472 35.0012 23.0983 35.0603 23.4425L35.1933 24.2169L34.4974 23.8513C34.1881 23.689 33.8191 23.6892 33.5103 23.8517L32.8148 24.2175L32.9474 23.4431C33.0064 23.0987 32.8922 22.7477 32.6421 22.5041L32.0792 21.9557L32.8568 21.8425C33.2023 21.7922 33.5008 21.5753 33.6554 21.262L34.003 20.5572L34.3509 21.2617C34.5055 21.5749 34.8042 21.7917 35.1498 21.8419L35.9275 21.9546L35.3651 22.5034Z" fill="#EB5582"/>
<path d="M29.0632 21.4398C28.9374 21.053 28.6092 20.7765 28.2067 20.7181L27.0321 20.5478L26.5065 19.4836C26.3264 19.119 25.962 18.8925 25.5554 18.8925C25.1486 18.8927 24.7839 19.1193 24.604 19.4841L24.079 20.5486L22.9044 20.7195C22.5019 20.7782 22.1739 21.055 22.0483 21.4418C21.9227 21.8287 22.0257 22.2454 22.317 22.5292L23.1671 23.3574L22.9668 24.5273C22.8981 24.9282 23.06 25.3257 23.3891 25.5647C23.5749 25.6997 23.7924 25.7683 24.0114 25.7683C24.18 25.7683 24.3496 25.7276 24.5062 25.6451L25.5567 25.0925L26.6074 25.6445C26.9675 25.8337 27.3955 25.8027 27.7246 25.5635C28.0536 25.3243 28.2151 24.9267 28.1463 24.5258L27.9453 23.3561L28.7951 22.5273C29.0863 22.2432 29.189 21.8266 29.0632 21.4398ZM26.9174 22.5034C26.6674 22.7472 26.5535 23.0983 26.6126 23.4425L26.7456 24.2169L26.0498 23.8513C25.7406 23.689 25.3714 23.6892 25.0626 23.8517L24.3672 24.2175L24.4998 23.4429C24.5587 23.0987 24.4445 22.7478 24.1944 22.5041L23.6315 21.9557L24.4091 21.8425C24.7547 21.7922 25.0532 21.5753 25.2078 21.262L25.5554 20.5572L25.9033 21.2617C26.0579 21.5749 26.3566 21.7917 26.7022 21.8419L27.4799 21.9546L26.9174 22.5034Z" fill="#EB5582"/>
<path d="M19.0178 44.7073C18.6511 44.7073 18.3538 45.0047 18.3538 45.3714V45.3817C18.3538 45.7484 18.6511 46.0458 19.0178 46.0458C19.3846 46.0458 19.6819 45.7484 19.6819 45.3817V45.3714C19.6819 45.0047 19.3846 44.7073 19.0178 44.7073Z" fill="#EB5582"/>
</svg>
