<svg width="64" height="64" viewBox="0 0 64 64" fill="none" xmlns="http://www.w3.org/2000/svg">
<rect width="64" height="63.9994" rx="31.9997" fill="#DDFDF2"/>
<path d="M27.6169 36.4808C27.7915 36.4808 27.9628 36.4104 28.0864 36.2862C28.2099 36.1627 28.2809 35.992 28.2809 35.8167C28.2809 35.6421 28.2099 35.4707 28.0864 35.3472C27.9628 35.2237 27.7922 35.1527 27.6169 35.1527C27.4422 35.1527 27.2709 35.2237 27.1474 35.3472C27.0239 35.4707 26.9528 35.6421 26.9528 35.8167C26.9528 35.992 27.0239 36.1627 27.1474 36.2862C27.2709 36.4104 27.4422 36.4808 27.6169 36.4808Z" fill="#00996F"/>
<path d="M43.4101 30.7401V28.022H44.2847C44.9804 28.022 45.5464 27.456 45.5464 26.7603V21.5741C45.5464 20.8784 44.9804 20.3124 44.2847 20.3124H40.1447C41.0029 19.4706 41.5367 18.2991 41.5367 17.0049C41.5367 16.6382 41.2394 16.3409 40.8726 16.3409C40.5058 16.3409 40.2085 16.6382 40.2085 17.0049C40.2085 18.2456 39.5216 19.3282 38.5084 19.8941C38.7618 19.4254 38.9059 18.8894 38.9059 18.3203C38.9059 16.4895 37.4164 15 35.5856 15C34.0848 15 32.814 16.0012 32.4045 17.3706C31.8273 16.8862 31.0839 16.5937 30.2732 16.5937C29.4625 16.5937 28.7191 16.8862 28.1419 17.3706C27.7324 16.0012 26.4616 15 24.9608 15C23.13 15 21.6405 16.4895 21.6405 18.3203C21.6405 18.8894 21.7846 19.4255 22.038 19.8941C21.0248 19.3282 20.3379 18.2455 20.3379 17.0048C20.3379 16.6381 20.0406 16.3408 19.6738 16.3408C19.307 16.3408 19.0097 16.6381 19.0097 17.0048C19.0097 18.2991 19.5435 19.4705 20.4017 20.3124H16.2617C15.566 20.3124 15 20.8783 15 21.574V26.7602C15 27.456 15.566 28.0219 16.2617 28.0219H17.1363V44.351C17.1363 45.4495 18.0299 46.3432 19.1284 46.3432H32.8305C34.5486 47.9877 36.8771 48.9994 39.4377 48.9994C44.7104 48.9994 49 44.7098 49 39.4371C49 35.581 46.7054 32.2513 43.4101 30.7401ZM33.5935 18.3203C33.5935 17.2218 34.4871 16.3281 35.5856 16.3281C36.6841 16.3281 37.5778 17.2218 37.5778 18.3203C37.5778 19.4187 36.6841 20.3124 35.5856 20.3124H33.5935V18.3203ZM33.5935 21.6405H44.2183V26.6939H33.5935V21.6405ZM33.5935 28.022H42.082V30.247C41.2419 30.0049 40.3547 29.8748 39.4377 29.8748C37.2385 29.8748 35.2107 30.6214 33.5935 31.874V28.022ZM28.281 19.914C28.281 18.8155 29.1747 17.9218 30.2732 17.9218C31.3717 17.9218 32.2654 18.8155 32.2654 19.914V20.3124H28.281V19.914ZM28.281 21.6405H32.2654V26.6939H28.281V21.6405ZM24.9608 16.3281C26.0593 16.3281 26.9529 17.2218 26.9529 18.3203V20.3124H24.9608C23.8623 20.3124 22.9686 19.4187 22.9686 18.3203C22.9686 17.2218 23.8623 16.3281 24.9608 16.3281ZM16.3281 26.6939V21.6405H26.9529V26.6939H16.3281ZM28.281 45.0152V38.8052C28.281 38.4385 27.9837 38.1412 27.617 38.1412C27.2502 38.1412 26.9529 38.4385 26.9529 38.8052V45.0152H19.1284C18.7623 45.0152 18.4644 44.7173 18.4644 44.3511V28.022H26.9529V32.8287C26.9529 33.1955 27.2502 33.4928 27.617 33.4928C27.9837 33.4928 28.281 33.1955 28.281 32.8287V28.022H32.2654V33.1203C30.7787 34.8062 29.8753 37.018 29.8753 39.4371C29.8753 41.5173 30.5433 43.4441 31.6755 45.0152H28.281ZM39.4377 47.6714C34.8973 47.6714 31.2034 43.9775 31.2034 39.4371C31.2034 34.8967 34.8973 31.2029 39.4377 31.2029C43.978 31.2029 47.6719 34.8967 47.6719 39.4371C47.6719 43.9775 43.978 47.6714 39.4377 47.6714Z" fill="#00996F"/>
<path d="M41.6029 35.0669C41.2728 34.9066 40.8757 35.0442 40.7154 35.3741L37.0615 42.8982C36.9013 43.2281 37.0389 43.6254 37.3688 43.7857C37.4622 43.831 37.561 43.8525 37.6584 43.8525C37.9047 43.8525 38.1414 43.7149 38.2562 43.4784L41.9101 35.9543C42.0704 35.6244 41.9328 35.227 41.6029 35.0669Z" fill="#00996F"/>
<path d="M37.7592 34.6939C37.3578 34.2925 36.824 34.0714 36.2564 34.0714C35.6887 34.0714 35.155 34.2925 34.7536 34.6939C33.9249 35.5226 33.9249 36.871 34.7536 37.6997C35.1679 38.1141 35.7121 38.3212 36.2564 38.3212C36.8006 38.3212 37.345 38.1139 37.7593 37.6997C38.5879 36.871 38.5879 35.5226 37.7592 34.6939ZM36.8201 36.7605C36.5093 37.0714 36.0035 37.0713 35.6927 36.7605C35.3818 36.4497 35.3818 35.9439 35.6927 35.633C35.8432 35.4824 36.0434 35.3995 36.2564 35.3995C36.4694 35.3995 36.6695 35.4824 36.8201 35.6331C37.131 35.9439 37.131 36.4497 36.8201 36.7605Z" fill="#00996F"/>
<path d="M41.2343 41.1746C40.4056 42.0033 40.4056 43.3517 41.2343 44.1804C41.6357 44.5818 42.1695 44.8029 42.7371 44.8029C43.3048 44.8029 43.8385 44.5818 44.2399 44.1804C45.0686 43.3517 45.0686 42.0033 44.2399 41.1746C43.4112 40.3459 42.0629 40.346 41.2343 41.1746ZM43.3008 43.2412C43.1503 43.3919 42.9501 43.4747 42.7371 43.4747C42.5241 43.4747 42.324 43.3918 42.1734 43.2412C41.8625 42.9303 41.8625 42.4246 42.1734 42.1137C42.3288 41.9583 42.533 41.8806 42.7371 41.8806C42.9412 41.8806 43.1454 41.9583 43.3008 42.1137C43.6117 42.4246 43.6117 42.9304 43.3008 43.2412Z" fill="#00996F"/>
</svg>
