<svg width="57" height="64" viewBox="0 0 57 64" fill="none" xmlns="http://www.w3.org/2000/svg">
<rect width="56.9318" height="63.9999" rx="28.4659" fill="#FFFCDD"/>
<path d="M37.8487 25.8853C37.6224 25.6652 37.3047 25.5651 36.9937 25.6163C36.6822 25.6673 36.4132 25.8628 36.2687 26.1435C35.7717 27.109 35.1404 27.9962 34.3977 28.7805C34.4717 28.214 34.509 27.644 34.509 27.0725C34.509 25.9759 34.362 24.8474 34.072 23.7181C33.1185 20.0087 30.6185 16.8715 27.2128 15.1112C26.9165 14.9579 26.563 14.9635 26.2712 15.1256C25.9795 15.2878 25.7885 15.5852 25.7623 15.9179C25.4968 19.289 23.7604 22.3559 20.9958 24.3343C20.9591 24.3607 20.9228 24.3874 20.8864 24.4139C20.8113 24.469 20.7403 24.521 20.6741 24.5647C20.6637 24.5716 20.6534 24.5787 20.6433 24.5859C18.9045 25.8308 17.4698 27.4903 16.4941 29.3855C15.5027 31.3132 15 33.3818 15 35.5337C15 36.63 15.147 37.7584 15.4368 38.888C16.9665 44.8417 22.3244 48.9999 28.4663 48.9999C35.8912 48.9999 41.9318 42.959 41.9318 35.5337C41.9318 31.8721 40.4817 28.4455 37.8487 25.8853ZM28.4663 47.0078C23.2341 47.0078 18.6697 43.465 17.3665 38.3926C17.1182 37.425 16.9922 36.4631 16.9922 35.5338C16.9922 33.7018 17.4206 31.9399 18.2655 30.2971C19.0943 28.6872 20.3125 27.2764 21.7892 26.2158C21.8893 26.1489 21.9819 26.0811 22.0642 26.0208C22.096 25.9974 22.128 25.974 22.1577 25.9526C24.9706 23.9397 26.877 20.9621 27.5356 17.6228C29.8025 19.1838 31.4507 21.5221 32.1426 24.2139C32.3909 25.1811 32.5168 26.1429 32.5168 27.0726C32.5168 28.4338 32.2674 29.7881 31.7753 31.0978C31.6248 31.4983 31.7469 31.9502 32.0786 32.2204C32.4104 32.4905 32.8775 32.5187 33.2393 32.2905C34.8828 31.2533 36.2797 29.8768 37.3358 28.2638C39.0233 30.3101 39.9396 32.8479 39.9396 35.5338C39.9396 41.8606 34.7926 47.0078 28.4663 47.0078Z" fill="#C0A618"/>
<path d="M30.751 34H27.6882C27.2934 34 26.9733 34.3093 26.9733 34.6906C26.9732 35.0721 27.2934 35.3815 27.688 35.3815H29.0253L25.971 38.3324L24.3108 36.7282C24.0317 36.4586 23.5789 36.4586 23.2999 36.7282L21.6754 38.2977C21.3961 38.5675 21.3961 39.0048 21.6752 39.2746C21.9545 39.5444 22.407 39.5442 22.6863 39.2746L23.8053 38.1935L25.4654 39.7977C25.5994 39.9272 25.7813 40 25.971 40C26.1605 40 26.3424 39.9272 26.4765 39.7977L30.0362 36.3584V37.6501C30.0362 38.0315 30.3562 38.3409 30.751 38.3409C31.1459 38.3409 31.4659 38.0315 31.4659 37.6501V34.6908C31.4659 34.3093 31.1459 34 30.751 34Z" fill="#C0A618"/>
</svg>
