<svg width="20" height="16" viewBox="0 0 20 16" fill="none" xmlns="http://www.w3.org/2000/svg">
<rect y="0.858337" width="20" height="14.2857" rx="2" fill="white"/>
<mask id="mask0_280_9841" style="mask-type:luminance" maskUnits="userSpaceOnUse" x="0" y="0" width="20" height="16">
<rect y="0.858337" width="20" height="14.2857" rx="2" fill="white"/>
</mask>
<g mask="url(#mask0_280_9841)">
<path fill-rule="evenodd" clip-rule="evenodd" d="M20 0.858337H0V1.81072H20V0.858337ZM20 2.7631H0V3.71548H20V2.7631ZM0 4.66786H20V5.62024H0V4.66786ZM20 6.57262H0V7.525H20V6.57262ZM0 8.47739H20V9.42977H0V8.47739ZM20 10.3821H0V11.3345H20V10.3821ZM0 12.2869H20V13.2393H0V12.2869ZM20 14.1917H0V15.1441H20V14.1917Z" fill="#D02F44"/>
<rect y="0.858337" width="8.57143" height="6.66667" fill="#46467F"/>
<g filter="url(#filter0_d_280_9841)">
<path fill-rule="evenodd" clip-rule="evenodd" d="M1.90477 2.28692C1.90477 2.54991 1.69158 2.76311 1.42858 2.76311C1.16559 2.76311 0.952393 2.54991 0.952393 2.28692C0.952393 2.02393 1.16559 1.81073 1.42858 1.81073C1.69158 1.81073 1.90477 2.02393 1.90477 2.28692ZM3.80954 2.28692C3.80954 2.54991 3.59634 2.76311 3.33335 2.76311C3.07035 2.76311 2.85715 2.54991 2.85715 2.28692C2.85715 2.02393 3.07035 1.81073 3.33335 1.81073C3.59634 1.81073 3.80954 2.02393 3.80954 2.28692ZM5.23811 2.76311C5.5011 2.76311 5.7143 2.54991 5.7143 2.28692C5.7143 2.02393 5.5011 1.81073 5.23811 1.81073C4.97511 1.81073 4.76192 2.02393 4.76192 2.28692C4.76192 2.54991 4.97511 2.76311 5.23811 2.76311ZM7.61906 2.28692C7.61906 2.54991 7.40586 2.76311 7.14287 2.76311C6.87988 2.76311 6.66668 2.54991 6.66668 2.28692C6.66668 2.02393 6.87988 1.81073 7.14287 1.81073C7.40586 1.81073 7.61906 2.02393 7.61906 2.28692ZM2.38096 3.71549C2.64396 3.71549 2.85715 3.50229 2.85715 3.2393C2.85715 2.97631 2.64396 2.76311 2.38096 2.76311C2.11797 2.76311 1.90477 2.97631 1.90477 3.2393C1.90477 3.50229 2.11797 3.71549 2.38096 3.71549ZM4.76192 3.2393C4.76192 3.50229 4.54872 3.71549 4.28573 3.71549C4.02273 3.71549 3.80954 3.50229 3.80954 3.2393C3.80954 2.97631 4.02273 2.76311 4.28573 2.76311C4.54872 2.76311 4.76192 2.97631 4.76192 3.2393ZM6.19049 3.71549C6.45348 3.71549 6.66668 3.50229 6.66668 3.2393C6.66668 2.97631 6.45348 2.76311 6.19049 2.76311C5.9275 2.76311 5.7143 2.97631 5.7143 3.2393C5.7143 3.50229 5.9275 3.71549 6.19049 3.71549ZM7.61906 4.19168C7.61906 4.45468 7.40586 4.66787 7.14287 4.66787C6.87988 4.66787 6.66668 4.45468 6.66668 4.19168C6.66668 3.92869 6.87988 3.71549 7.14287 3.71549C7.40586 3.71549 7.61906 3.92869 7.61906 4.19168ZM5.23811 4.66787C5.5011 4.66787 5.7143 4.45468 5.7143 4.19168C5.7143 3.92869 5.5011 3.71549 5.23811 3.71549C4.97511 3.71549 4.76192 3.92869 4.76192 4.19168C4.76192 4.45468 4.97511 4.66787 5.23811 4.66787ZM3.80954 4.19168C3.80954 4.45468 3.59634 4.66787 3.33335 4.66787C3.07035 4.66787 2.85715 4.45468 2.85715 4.19168C2.85715 3.92869 3.07035 3.71549 3.33335 3.71549C3.59634 3.71549 3.80954 3.92869 3.80954 4.19168ZM1.42858 4.66787C1.69158 4.66787 1.90477 4.45468 1.90477 4.19168C1.90477 3.92869 1.69158 3.71549 1.42858 3.71549C1.16559 3.71549 0.952393 3.92869 0.952393 4.19168C0.952393 4.45468 1.16559 4.66787 1.42858 4.66787ZM2.85715 5.14406C2.85715 5.40706 2.64396 5.62025 2.38096 5.62025C2.11797 5.62025 1.90477 5.40706 1.90477 5.14406C1.90477 4.88107 2.11797 4.66787 2.38096 4.66787C2.64396 4.66787 2.85715 4.88107 2.85715 5.14406ZM4.28573 5.62025C4.54872 5.62025 4.76192 5.40706 4.76192 5.14406C4.76192 4.88107 4.54872 4.66787 4.28573 4.66787C4.02273 4.66787 3.80954 4.88107 3.80954 5.14406C3.80954 5.40706 4.02273 5.62025 4.28573 5.62025ZM6.66668 5.14406C6.66668 5.40706 6.45348 5.62025 6.19049 5.62025C5.9275 5.62025 5.7143 5.40706 5.7143 5.14406C5.7143 4.88107 5.9275 4.66787 6.19049 4.66787C6.45348 4.66787 6.66668 4.88107 6.66668 5.14406ZM7.14287 6.57264C7.40586 6.57264 7.61906 6.35944 7.61906 6.09644C7.61906 5.83345 7.40586 5.62025 7.14287 5.62025C6.87988 5.62025 6.66668 5.83345 6.66668 6.09644C6.66668 6.35944 6.87988 6.57264 7.14287 6.57264ZM5.7143 6.09644C5.7143 6.35944 5.5011 6.57264 5.23811 6.57264C4.97511 6.57264 4.76192 6.35944 4.76192 6.09644C4.76192 5.83345 4.97511 5.62025 5.23811 5.62025C5.5011 5.62025 5.7143 5.83345 5.7143 6.09644ZM3.33335 6.57264C3.59634 6.57264 3.80954 6.35944 3.80954 6.09644C3.80954 5.83345 3.59634 5.62025 3.33335 5.62025C3.07035 5.62025 2.85715 5.83345 2.85715 6.09644C2.85715 6.35944 3.07035 6.57264 3.33335 6.57264ZM1.90477 6.09644C1.90477 6.35944 1.69158 6.57264 1.42858 6.57264C1.16559 6.57264 0.952393 6.35944 0.952393 6.09644C0.952393 5.83345 1.16559 5.62025 1.42858 5.62025C1.69158 5.62025 1.90477 5.83345 1.90477 6.09644Z" fill="url(#paint0_linear_280_9841)"/>
</g>
</g>
<defs>
<filter id="filter0_d_280_9841" x="0.952393" y="1.81073" width="6.66669" height="5.7619" filterUnits="userSpaceOnUse" color-interpolation-filters="sRGB">
<feFlood flood-opacity="0" result="BackgroundImageFix"/>
<feColorMatrix in="SourceAlpha" type="matrix" values="0 0 0 0 0 0 0 0 0 0 0 0 0 0 0 0 0 0 127 0" result="hardAlpha"/>
<feOffset dy="1"/>
<feColorMatrix type="matrix" values="0 0 0 0 0 0 0 0 0 0 0 0 0 0 0 0 0 0 0.06 0"/>
<feBlend mode="normal" in2="BackgroundImageFix" result="effect1_dropShadow_280_9841"/>
<feBlend mode="normal" in="SourceGraphic" in2="effect1_dropShadow_280_9841" result="shape"/>
</filter>
<linearGradient id="paint0_linear_280_9841" x1="0.952393" y1="1.81073" x2="0.952393" y2="6.57263" gradientUnits="userSpaceOnUse">
<stop stop-color="white"/>
<stop offset="1" stop-color="#F0F0F0"/>
</linearGradient>
</defs>
</svg>
