<svg width="100" height="100" viewBox="0 0 100 100" fill="none" xmlns="http://www.w3.org/2000/svg">
<g clip-path="url(#clip0_136_7809)">
<circle cx="50" cy="50" r="50" fill="white"/>
<g clip-path="url(#clip1_136_7809)">
<path fill-rule="evenodd" clip-rule="evenodd" d="M40.8957 30.418C42.7862 31.5479 44.0627 32.6681 44.6088 34.1241C49.4659 31.5027 54.5298 32.8844 57.4382 34.3501C58.5014 32.8037 59.1542 32.1903 61.6813 31.1217C77.8747 65.5327 24.4276 66.5109 40.899 30.418H40.8957Z" fill="#FF9933"/>
<path fill-rule="evenodd" clip-rule="evenodd" d="M63.7204 35.3931C63.7204 35.3931 60.0235 39.3575 63.5136 49.0845C65.85 44.7972 64.7707 38.615 63.7204 35.3931Z" fill="#DA8103"/>
<path fill-rule="evenodd" clip-rule="evenodd" d="M39.2056 36.6909C39.2056 36.6909 42.951 43.4123 38.0778 46.7504C37.1503 42.3308 38.1554 39.9612 39.2056 36.6909Z" fill="#DA8103"/>
<path fill-rule="evenodd" clip-rule="evenodd" d="M68.1477 55.696C66.4576 56.9873 64.3893 57.8816 61.943 58.3852C66.2798 52.8905 63.9563 48.7486 62.8996 42.8246C60.5373 29.5851 75.3218 28.4068 78.6115 34.108C80.2015 36.8618 85.7049 33.4591 86.5806 34.6827C86.9943 35.2605 80.9512 38.505 81.1645 40.4646C80.8801 61.7007 62.1692 61.6426 58.2914 60.687C63.4619 59.1729 64.3279 59.2084 68.1477 55.6927V55.696Z" fill="#2DBBC2"/>
<path fill-rule="evenodd" clip-rule="evenodd" d="M38.346 34.7535C40.8893 39.5702 41.025 46.0463 35.6703 46.3304C29.6111 46.6532 36.4911 50.4659 38.081 52.8549C40.9668 57.1938 28.0631 63.4955 23.8847 58.4754C16.2582 49.3069 14.9235 37.4976 14.4 31.2637C17.0047 32.0224 18.8757 33.5881 19.9357 35.3831C19.577 32.9037 20.0844 30.0466 21.4093 28.1968C21.4416 28.242 23.5615 31.7802 24.8542 32.9489C26.3795 34.3274 32.7005 32.1676 34.4358 30.9828C37.7062 28.7521 39.2282 33.3815 38.3428 34.7535H38.346Z" fill="#8C5926"/>
<path d="M28.8452 52.9263C30.1798 54.8246 27.2843 56.8585 25.9497 54.9602C23.5583 51.5575 20.5852 46.6536 20.5917 42.3793C20.6014 34.1825 37.1277 32.6103 35.3083 40.9976C34.5877 44.3228 29.4947 47.2961 25.1709 46.5568C26.1016 48.7327 27.4136 50.8828 28.8452 52.9263ZM24.1238 42.3793V42.4859C28.661 44.9878 35.2017 39.0606 29.8793 38.9282C27.6527 38.8733 24.1271 40.1614 24.1238 42.3793Z" fill="white"/>
<path d="M46.1729 43.7445C48.6225 43.7025 52.3355 43.5249 55.0307 43.0601C54.142 39.7219 47.2361 39.2829 46.1729 43.7445ZM46.3991 47.273C47.7402 50.4497 53.2178 50.4401 55.845 48.3287C57.6515 46.876 59.8716 49.6297 58.0619 51.0825C53.2178 54.9759 43.8429 53.9686 42.6505 46.9696C40.4756 34.1918 58.7276 34.2531 58.6824 43.7703C58.6791 44.7808 58.5111 45.8687 57.3089 46.1819C53.8156 47.0923 49.9926 47.2053 46.3991 47.2698V47.273Z" fill="white"/>
<path d="M69.5308 37.1686C69.0751 34.8797 72.5523 34.1889 73.008 36.4745C73.1792 37.3333 73.2827 38.1662 73.3311 38.983C74.0906 38.7796 75.8324 37.8433 76.5789 39.6093C77.4643 41.7077 74.7272 42.3501 73.1857 42.6374C72.7462 46.0724 71.111 49.4396 72.6783 49.4267C73.4087 49.4202 74.837 47.9384 75.9843 49.5461C78.0848 52.4968 70.3936 55.1344 68.7164 50.1659C67.9829 47.9965 69.143 45.614 69.5825 42.8441C68.1671 42.7472 65.8112 42.5148 66.254 40.4648C66.6805 38.4858 68.7326 39.238 69.8022 39.3122C69.7667 38.6149 69.6827 37.9015 69.534 37.1686H69.5308Z" fill="white"/>
</g>
<path d="M28.6195 79.325V78.9386C29.2819 78.9386 29.6683 78.8159 29.7787 78.5706V68.8186C29.7787 68.8186 29.3923 68.7879 28.6195 68.7266V68.3034C28.8525 68.3034 29.3064 68.1746 29.9811 67.917C30.668 67.6471 31.1525 67.5122 31.4347 67.5122V68.1194C32.0235 67.7146 32.7595 67.5122 33.6427 67.5122C34.0475 67.5122 34.4461 67.5858 34.8387 67.733C35.2435 67.8679 35.6421 68.0887 36.0347 68.3954C36.4395 68.6898 36.7645 69.1314 37.0099 69.7202C37.2675 70.309 37.3963 70.9959 37.3963 71.781C37.3963 73.1426 37.016 74.1853 36.2555 74.909C35.4949 75.6205 34.4891 75.9762 33.2379 75.9762C32.5264 75.9762 31.9253 75.8413 31.4347 75.5714V78.5706C31.5451 78.8159 31.9315 78.9386 32.5939 78.9386V79.325H28.6195ZM31.4347 74.9826C31.9008 75.2279 32.4651 75.3506 33.1275 75.3506C33.8021 75.3506 34.3909 75.0378 34.8939 74.4122C35.3968 73.7866 35.6483 72.9095 35.6483 71.781C35.6483 71.0327 35.4275 70.2415 34.9859 69.4074C34.5565 68.561 34.0475 68.1378 33.4587 68.1378C32.6123 68.1378 31.9376 68.3341 31.4347 68.7266V74.9826Z" fill="#36383C"/>
<path d="M38.6858 75.7922V75.4058C39.3482 75.4058 39.7346 75.2831 39.845 75.0378V68.8186C39.0845 68.7573 38.6981 68.7266 38.6858 68.7266V68.3034C38.9189 68.3034 39.3728 68.1746 40.0474 67.917C40.7344 67.6471 41.2189 67.5122 41.501 67.5122V75.0378C41.6114 75.2831 41.9978 75.4058 42.6602 75.4058V75.7922H38.6858ZM40.6178 66.3346C40.348 66.3346 40.1088 66.2365 39.9002 66.0402C39.704 65.8317 39.6058 65.5679 39.6058 65.249C39.6058 64.9669 39.6917 64.7215 39.8634 64.513C40.0474 64.3045 40.2805 64.2002 40.5626 64.2002C40.8325 64.2002 41.0717 64.3045 41.2802 64.513C41.4888 64.7215 41.593 64.9853 41.593 65.3042C41.593 65.5863 41.501 65.8317 41.317 66.0402C41.133 66.2365 40.9 66.3346 40.6178 66.3346Z" fill="#36383C"/>
<path d="M51.0981 67.6962V68.0826C50.4602 68.0826 50.0493 68.1991 49.8653 68.4322L48.0621 71.1186L50.5093 75.0562C50.6442 75.2893 51.0245 75.4058 51.6501 75.4058V75.7922H48.0805V75.4058C48.3749 75.4058 48.6079 75.3874 48.7797 75.3506L47.0685 72.5906L45.2653 75.277C45.4247 75.3629 45.7314 75.4058 46.1853 75.4058V75.7922H43.1677V75.4058C43.8178 75.4058 44.2349 75.277 44.4189 75.0194L46.5717 71.8178L44.4373 68.377C44.3146 68.1807 43.9527 68.0826 43.3517 68.0826V67.6962H46.9213V68.0826C46.6269 68.0826 46.3877 68.101 46.2037 68.1378L47.5653 70.3458L49.0005 68.2114C48.841 68.1255 48.5343 68.0826 48.0805 68.0826V67.6962H51.0981Z" fill="#36383C"/>
<path d="M52.1983 75.7922V75.4058C52.8607 75.4058 53.2471 75.2831 53.3575 75.0378V68.8186C52.597 68.7573 52.2106 68.7266 52.1983 68.7266V68.3034C52.4314 68.3034 52.8853 68.1746 53.5599 67.917C54.2469 67.6471 54.7314 67.5122 55.0135 67.5122V75.0378C55.1239 75.2831 55.5103 75.4058 56.1727 75.4058V75.7922H52.1983ZM54.1303 66.3346C53.8605 66.3346 53.6213 66.2365 53.4127 66.0402C53.2165 65.8317 53.1183 65.5679 53.1183 65.249C53.1183 64.9669 53.2042 64.7215 53.3759 64.513C53.5599 64.3045 53.793 64.2002 54.0751 64.2002C54.345 64.2002 54.5842 64.3045 54.7927 64.513C55.0013 64.7215 55.1055 64.9853 55.1055 65.3042C55.1055 65.5863 55.0135 65.8317 54.8295 66.0402C54.6455 66.2365 54.4125 66.3346 54.1303 66.3346Z" fill="#36383C"/>
<path d="M58.9271 71.3578C58.9394 72.3882 59.2338 73.3021 59.8103 74.0994C60.3991 74.8845 61.0554 75.277 61.7791 75.277C62.8463 75.277 63.705 74.8722 64.3551 74.0626L64.7967 74.2834C64.441 74.8722 63.9749 75.3015 63.3983 75.5714C62.8341 75.8413 62.0858 75.9762 61.1535 75.9762C60.6874 75.9762 60.2397 75.9087 59.8103 75.7738C59.381 75.6266 58.9578 75.3935 58.5407 75.0746C58.1237 74.7434 57.7925 74.2589 57.5471 73.621C57.3018 72.9831 57.1791 72.2226 57.1791 71.3394C57.1791 70.2599 57.5103 69.3522 58.1727 68.6162C58.8474 67.8802 59.7797 67.5122 60.9695 67.5122C62.2698 67.5122 63.2389 67.8802 63.8767 68.6162C64.5146 69.3399 64.8335 70.2538 64.8335 71.3578H58.9271ZM58.9455 70.7874H63.0303C62.9567 69.9042 62.7666 69.2295 62.4599 68.7634C62.1655 68.2973 61.6442 68.0642 60.8959 68.0642C60.4666 68.0642 60.0495 68.3157 59.6447 68.8186C59.2522 69.3215 59.0191 69.9778 58.9455 70.7874Z" fill="#36383C"/>
<path d="M69.3445 75.4242C69.688 75.4242 70.0621 75.3138 70.4669 75.093C70.884 74.8722 71.0925 74.541 71.0925 74.0994C71.0925 73.3879 70.3627 72.7746 68.9029 72.2594C68.5472 72.1367 68.2528 72.0202 68.0197 71.9098C67.7989 71.7994 67.5536 71.6461 67.2837 71.4498C67.0139 71.2535 66.8115 71.0143 66.6765 70.7322C66.5416 70.4501 66.4741 70.1189 66.4741 69.7386C66.4741 69.0517 66.7256 68.5119 67.2285 68.1194C67.7315 67.7146 68.3387 67.5122 69.0501 67.5122C69.4672 67.5122 69.8904 67.6042 70.3197 67.7882C70.7613 67.9722 71.0128 68.0642 71.0741 68.0642C71.2213 68.0642 71.2949 67.9415 71.2949 67.6962H71.7181V69.9042H71.3133C71.2397 69.389 70.9883 68.9535 70.5589 68.5978C70.1419 68.2421 69.6573 68.0642 69.1054 68.0642C68.7128 68.0642 68.3816 68.1562 68.1117 68.3402C67.8541 68.5242 67.7253 68.7757 67.7253 69.0946C67.7253 69.2786 67.7621 69.4503 67.8357 69.6098C67.9093 69.757 67.9829 69.8797 68.0565 69.9778C68.1301 70.0637 68.2651 70.1618 68.4613 70.2722C68.6699 70.3826 68.8232 70.4623 68.9213 70.5114C69.0317 70.5482 69.2219 70.6157 69.4917 70.7138C69.7739 70.8119 69.964 70.8794 70.0621 70.9162C70.7 71.1615 71.2459 71.5111 71.6997 71.965C72.1536 72.4066 72.3805 72.9218 72.3805 73.5106C72.3805 74.2589 72.08 74.8599 71.4789 75.3138C70.8779 75.7554 70.1173 75.9762 69.1973 75.9762C68.7557 75.9762 68.3264 75.8719 67.9093 75.6634C67.4923 75.4549 67.2592 75.3506 67.2101 75.3506C67.1365 75.3506 67.0507 75.3997 66.9525 75.4978C66.8544 75.5959 66.8053 75.6941 66.8053 75.7922H66.3637V73.1978H66.7685C66.8544 73.8234 67.1427 74.3509 67.6334 74.7802C68.1363 75.2095 68.7067 75.4242 69.3445 75.4242Z" fill="#36383C"/>
</g>
<defs>
<clipPath id="clip0_136_7809">
<rect width="100" height="100" fill="white"/>
</clipPath>
<clipPath id="clip1_136_7809">
<rect width="72.2" height="32.8" fill="white" transform="translate(14.4 28.2002)"/>
</clipPath>
</defs>
</svg>
