<svg width="62" height="62" viewBox="0 0 62 62" fill="none" xmlns="http://www.w3.org/2000/svg">
<g clip-path="url(#clip0_199_13676)">
<path d="M41.2239 28.3402C40.7459 28.8449 40.3082 29.3863 39.9151 29.9596C39.014 31.2537 36.6276 34.1587 32.9918 35.1329C30.7804 35.7254 28.111 35.5972 25.013 33.9735L30.4417 54.2336C30.4879 54.4061 30.6008 54.5531 30.7554 54.6424C30.9101 54.7317 31.0939 54.7559 31.2664 54.7097L54.824 48.3975C54.9965 48.3512 55.1436 48.2384 55.2329 48.0837C55.3222 47.9291 55.3464 47.7453 55.3001 47.5728L49.0837 24.3729C46.1084 24.8252 43.3549 26.215 41.2239 28.3402ZM39.053 36.6806C39.4312 36.5793 39.831 36.5923 40.2017 36.7182C40.5725 36.8441 40.8976 37.077 41.1359 37.3877C41.3743 37.6983 41.5152 38.0726 41.5408 38.4633C41.5664 38.854 41.4756 39.2435 41.2798 39.5826C41.084 39.9217 40.7921 40.1951 40.441 40.3683C40.0898 40.5414 39.6952 40.6066 39.307 40.5555C38.9188 40.5044 38.5545 40.3393 38.2601 40.0812C37.9658 39.823 37.7545 39.4833 37.6532 39.1052C37.5173 38.598 37.5885 38.0577 37.851 37.603C38.1135 37.1483 38.5459 36.8165 39.053 36.6806ZM33.4608 42.1386C33.3595 41.7604 33.3726 41.3606 33.4984 40.9899C33.6243 40.6191 33.8573 40.294 34.1679 40.0556C34.4785 39.8173 34.8528 39.6764 35.2435 39.6508C35.6342 39.6252 36.0237 39.716 36.3628 39.9118C36.7019 40.1075 36.9753 40.3995 37.1485 40.7506C37.3217 41.1018 37.3868 41.4964 37.3357 41.8846C37.2846 42.2728 37.1195 42.6371 36.8614 42.9315C36.6032 43.2258 36.2636 43.437 35.8854 43.5384C35.3782 43.6743 34.8379 43.6031 34.3832 43.3406C33.9285 43.0781 33.5967 42.6457 33.4608 42.1386ZM44.7285 47.5334C44.2094 47.6703 43.6621 47.6573 43.15 47.4959C42.638 47.3346 42.1821 47.0314 41.8352 46.6217L41.7637 46.6408C41.6728 47.1368 41.451 47.5994 41.1212 47.9808C40.7914 48.3622 40.3656 48.6485 39.888 48.8101C39.4103 48.9716 38.8982 49.0025 38.4046 48.8995C37.911 48.7966 37.4539 48.5636 37.0806 48.2246C36.7074 47.8856 36.4315 47.453 36.2817 46.9715C36.1318 46.4901 36.1134 45.9774 36.2283 45.4864C36.3433 44.9955 36.5874 44.5442 36.9353 44.1793C37.2833 43.8144 37.7225 43.5492 38.2075 43.4111C38.2999 42.8815 38.5421 42.3895 38.9053 41.9932C39.2686 41.5969 39.7377 41.313 40.2573 41.1749C40.7764 41.038 41.3237 41.051 41.8357 41.2124C42.3478 41.3737 42.8037 41.6768 43.1505 42.0866C43.5132 41.9639 43.8969 41.9159 44.2786 41.9455C44.6603 41.9751 45.0321 42.0817 45.3715 42.2589C45.7109 42.4361 46.0108 42.6802 46.2533 42.9765C46.4957 43.2728 46.6757 43.6152 46.7822 43.9829C46.8887 44.3506 46.9197 44.7361 46.8732 45.1161C46.8267 45.4962 46.7037 45.8628 46.5116 46.194C46.3195 46.5252 46.0623 46.814 45.7556 47.0431C45.4488 47.2722 45.0989 47.4368 44.7268 47.5269L44.7285 47.5334ZM45.2252 41.0358C44.847 41.1371 44.4472 41.124 44.0765 40.9982C43.7057 40.8723 43.3806 40.6393 43.1422 40.3287C42.9039 40.0181 42.763 39.6438 42.7374 39.2531C42.7118 38.8624 42.8026 38.4729 42.9984 38.1338C43.1942 37.7947 43.4861 37.5213 43.8372 37.3481C44.1884 37.1749 44.583 37.1098 44.9712 37.1609C45.3594 37.212 45.7237 37.3771 46.0181 37.6352C46.3124 37.8934 46.5237 38.233 46.625 38.6112C46.7609 39.1184 46.6897 39.6587 46.4272 40.1134C46.1647 40.5681 45.7323 40.8999 45.2252 41.0358Z" fill="#91ECF0"/>
<path d="M41.2399 16.6667L39.939 17.0153L39.3413 14.7844C39.1914 14.2249 38.8258 13.7477 38.3246 13.4573C37.8234 13.1669 37.2275 13.0871 36.6676 13.2352L33.6822 14.0352L33.0322 11.6092L34.9119 11.1055C35.1083 11.0529 35.2925 10.9621 35.4538 10.8382C35.6152 10.7144 35.7505 10.5601 35.8522 10.3839C35.9539 10.2078 36.0199 10.0134 36.0465 9.81173C36.073 9.61009 36.0596 9.4052 36.0069 9.20875L35.2663 6.44454C35.1584 6.04878 34.8986 5.71165 34.5433 5.50655C34.1881 5.30146 33.7662 5.24499 33.3695 5.34944L24.6996 7.67253C23.0377 8.11967 21.6211 9.20785 20.7606 10.6983C19.9001 12.1887 19.6661 13.9596 20.1098 15.6224L20.5698 17.3395C20.5933 17.4254 20.6335 17.5059 20.6882 17.5762C20.743 17.6465 20.8111 17.7052 20.8887 17.749C21.042 17.8367 21.2237 17.8606 21.3945 17.8156L24.3669 17.0192C24.5394 16.973 24.6864 16.8601 24.7757 16.7055C24.865 16.5508 24.8892 16.367 24.843 16.1945C24.7626 15.9015 24.7412 15.5955 24.78 15.2942C24.8188 14.9929 24.9169 14.7022 25.0688 14.4391C25.2207 14.176 25.4233 13.9457 25.6649 13.7615C25.9065 13.5772 26.1822 13.4428 26.4761 13.3659L31.7314 11.9577L32.3814 14.3837L29.4026 15.1819C28.8435 15.3335 28.3674 15.7006 28.0786 16.2027C27.7898 16.7048 27.7117 17.3009 27.8617 17.8604L28.4594 20.0912L27.1586 20.4398C25.736 20.821 24.5227 21.7508 23.7848 23.0254C23.0469 24.2999 22.8446 25.8151 23.2223 27.2386L24.5294 32.1167C24.6533 32.1148 24.7754 32.1472 24.8821 32.2104C32.2685 36.7003 37.0261 31.5357 38.7312 29.106C39.1709 28.4717 39.6612 27.8741 40.1973 27.3189C42.491 25.0045 45.4595 23.4769 48.6761 22.9558L48.0417 20.5883C47.6574 19.1678 46.7258 17.9574 45.4509 17.2224C44.176 16.4874 42.6618 16.2876 41.2399 16.6667Z" fill="#91ECF0"/>
<path d="M20.4385 43.1255C23.0607 42.4229 24.6168 39.7276 23.9142 37.1054C23.2116 34.4832 20.5163 32.927 17.8941 33.6296C15.2718 34.3323 13.7157 37.0276 14.4183 39.6498C15.1209 42.272 17.8163 43.8282 20.4385 43.1255Z" fill="#91ECF0"/>
<path d="M15.0093 26.7136C15.5933 26.5571 16.1178 26.2309 16.5164 25.7764C16.9151 25.3218 17.17 24.7592 17.2489 24.1598C17.3278 23.5603 17.2272 22.9509 16.9598 22.4087C16.6924 21.8664 16.2702 21.4156 15.7465 21.1133C15.2229 20.811 14.6214 20.6707 14.0181 20.7103C13.4148 20.7498 12.8367 20.9674 12.3571 21.3355C11.8774 21.7035 11.5176 22.2056 11.3233 22.7781C11.1289 23.3506 11.1087 23.9679 11.2652 24.552C11.3683 24.9402 11.5471 25.3042 11.7913 25.6232C12.0355 25.9422 12.3403 26.2098 12.6881 26.4106C13.036 26.6115 13.4202 26.7416 13.8185 26.7936C14.2168 26.8456 14.6215 26.8184 15.0093 26.7136Z" fill="#91ECF0"/>
<path d="M17.8707 48.1636C17.2861 48.3189 16.7607 48.6441 16.3609 49.0981C15.9612 49.5521 15.7052 50.1145 15.6252 50.7141C15.5453 51.3137 15.645 51.9236 15.9118 52.4665C16.1786 53.0094 16.6005 53.4609 17.124 53.7639C17.6475 54.0669 18.2492 54.2078 18.8528 54.1688C19.4565 54.1297 20.035 53.9124 20.5151 53.5445C20.9952 53.1765 21.3553 52.6744 21.5499 52.1016C21.7445 51.5289 21.7648 50.9113 21.6083 50.327C21.3987 49.5449 20.8875 48.878 20.1868 48.4724C19.4861 48.0668 18.6532 47.9558 17.8707 48.1636Z" fill="#91ECF0"/>
</g>
<defs>
<clipPath id="clip0_199_13676">
<rect width="49.8277" height="49.8277" fill="white" transform="translate(0 12.8965) rotate(-15)"/>
</clipPath>
</defs>
</svg>
