<svg width="70" height="70" viewBox="0 0 70 70" fill="none" xmlns="http://www.w3.org/2000/svg">
<g clip-path="url(#clip0_77_9357)">
<path d="M33.8198 28.5978C34.5281 29.5139 35.4759 30.2165 36.5584 30.6278C36.7397 30.6957 36.9405 30.6887 37.1166 30.6085C37.2927 30.5283 37.4298 30.3815 37.4976 30.2002C37.5655 30.0189 37.5585 29.8182 37.4783 29.642C37.3981 29.4659 37.2513 29.3288 37.07 29.261C36.0453 28.8658 35.179 28.1446 34.6046 27.2085C34.2911 27.552 34.0461 27.9522 33.8828 28.3876C33.8549 28.4554 33.8338 28.5258 33.8198 28.5978Z" fill="#00FFB9"/>
<path d="M52.2361 51.9228C52.2848 43.1027 50.1542 34.407 46.0336 26.6084C46.6857 25.6795 47.2152 24.6704 47.6091 23.6061C49.6298 18.207 47.9573 12.5788 43.884 11.0543C39.8108 9.52988 34.8472 12.6744 32.8265 18.0735C32.4524 19.0699 32.1976 20.107 32.0675 21.1633C32.5875 20.9605 33.1024 20.7714 33.631 20.5874C33.76 19.905 33.9482 19.235 34.1933 18.5851C35.9301 13.9446 40.0236 11.1679 43.3725 12.4212C46.7213 13.6745 47.979 18.454 46.2423 23.0945C45.9796 23.8068 45.6477 24.4916 45.2512 25.139C44.6298 24.0234 43.9777 22.9275 43.2949 21.8512C42.6634 20.8658 41.7367 20.105 40.6471 19.6777C39.5575 19.2503 38.3607 19.1781 37.2276 19.4714C36.015 19.7967 34.817 20.1665 33.6335 20.5806C33.1247 22.8261 33.4747 25.1808 34.6149 27.1812C35.227 26.4976 36.07 26.0643 36.9821 25.9644C37.8942 25.8644 38.8111 26.105 39.5567 26.6398C40.3022 27.1747 40.8239 27.9661 41.0216 28.8621C41.2193 29.7581 41.079 30.6956 40.6277 31.4945C40.1763 32.2933 39.4458 32.8973 38.5763 33.1905C37.7068 33.4836 36.7597 33.4452 35.9168 33.0826C35.0739 32.72 34.3947 32.0589 34.0095 31.2261C33.6244 30.3932 33.5604 29.4475 33.83 28.5704C32.2879 26.4205 31.658 23.7482 32.0777 21.1359C23.8783 24.3352 16.6152 29.5452 10.9567 36.2866C9.30844 38.2328 8.48122 40.7435 8.64973 43.2883C8.81824 45.8332 9.96927 48.2129 11.8597 49.9248C16.0691 53.8827 21.0088 56.9831 26.403 59.0533C28.9743 60.0181 31.639 60.7125 34.3542 61.1252C37.1334 61.552 39.9481 61.7023 42.7569 61.5742C45.2716 61.4831 47.6557 60.4318 49.4189 58.6366C51.1822 56.8414 52.1904 54.4387 52.2361 51.9228ZM42.1396 51.3153C41.7771 52.2784 41.0478 53.0585 40.1112 53.4849C39.1747 53.9114 38.1074 53.9493 37.143 53.5904C36.3399 53.2947 35.6585 52.7396 35.2064 52.013C34.7544 51.2864 34.5577 50.4297 34.6473 49.5787L25.5782 46.1844C25.087 46.8852 24.3762 47.4022 23.5582 47.6535C22.7401 47.9048 21.8617 47.8761 21.0618 47.5719C20.3526 47.3086 19.7359 46.8436 19.2879 46.234C18.8398 45.6245 18.58 44.8971 18.5405 44.1416C18.5009 43.3862 18.6834 42.6357 19.0654 41.9827C19.4473 41.3297 20.0121 40.8028 20.6899 40.467C20.4567 39.9215 20.3515 39.3298 20.3826 38.7373C20.4137 38.1448 20.5801 37.5673 20.8692 37.0492C21.1582 36.5311 21.5621 36.0861 22.05 35.7485C22.5378 35.4108 23.0965 35.1895 23.6832 35.1014C24.2699 35.0133 24.869 35.0609 25.4345 35.2405C25.9999 35.4201 26.5167 35.7269 26.9451 36.1373C27.3735 36.5477 27.7022 37.0509 27.9058 37.6081C28.1094 38.1654 28.1826 38.7619 28.1198 39.3518L37.1752 42.7409C37.6631 42.0324 38.3741 41.5075 39.1949 41.2498C40.0157 40.9922 40.8991 41.0167 41.7044 41.3194C42.4221 41.5806 43.0468 42.0476 43.5003 42.6621C43.9538 43.2766 44.216 44.0112 44.2541 44.774C44.2921 45.5368 44.1043 46.2939 43.7142 46.9504C43.3241 47.607 42.749 48.1339 42.0609 48.4653C42.4499 49.3704 42.478 50.3901 42.1396 51.3153Z" fill="#00FFB9"/>
</g>
<defs>
<clipPath id="clip0_77_9357">
<rect width="54" height="54" fill="white" transform="translate(19.1769 0.249023) rotate(20.5189)"/>
</clipPath>
</defs>
</svg>
