<svg width="51" height="51" viewBox="0 0 51 51" fill="none" xmlns="http://www.w3.org/2000/svg">
<path d="M38.25 45.4219H12.75C10.8485 45.4198 9.02558 44.6635 7.68105 43.319C6.33652 41.9744 5.58023 40.1515 5.57812 38.25V31.875H45.4219V38.25C45.4198 40.1515 44.6635 41.9744 43.319 43.319C41.9744 44.6635 40.1515 45.4198 38.25 45.4219ZM46.2188 30.2812H4.78125C4.14722 30.2812 3.53915 30.0294 3.09082 29.5811C2.64249 29.1327 2.39063 28.5247 2.39062 27.8906C2.39062 27.6793 2.47458 27.4766 2.62402 27.3271C2.77347 27.1777 2.97616 27.0938 3.1875 27.0938H47.8125C48.0238 27.0938 48.2265 27.1777 48.376 27.3271C48.5254 27.4766 48.6094 27.6793 48.6094 27.8906C48.6094 28.5247 48.3575 29.1327 47.9092 29.5811C47.4608 30.0294 46.8528 30.2812 46.2188 30.2812Z" fill="#FBEC9D"/>
<path d="M12.75 46.2188V49.4062H15.9375V46.2188" fill="#FBEC9D"/>
<path d="M35.0625 46.2188V49.4062H38.25V46.2188" fill="#FBEC9D"/>
<path d="M34.994 5.04267C34.869 4.91763 34.7098 4.83247 34.5365 4.79796C34.3631 4.76344 34.1834 4.78113 34.0201 4.84879C33.8568 4.91645 33.7173 5.03102 33.6191 5.17802C33.521 5.32502 33.4687 5.49784 33.4688 5.67459C33.4683 5.79198 33.4912 5.9083 33.536 6.01678C33.5809 6.12526 33.6469 6.22375 33.7301 6.30651L37.5217 10.098C37.6466 10.2231 37.8058 10.3082 37.9792 10.3428C38.1525 10.3773 38.3322 10.3596 38.4955 10.2919C38.6588 10.2243 38.7984 10.1097 38.8965 9.96269C38.9947 9.81569 39.047 9.64288 39.0469 9.46612C39.0473 9.34873 39.0245 9.23241 38.9796 9.12393C38.9347 9.01545 38.8688 8.91697 38.7855 8.8342L34.994 5.04267Z" fill="#FBEC9D"/>
<path d="M43.4018 0.796892C42.9269 0.795409 42.4565 0.888263 42.0178 1.07006C41.5791 1.25186 41.1808 1.51899 40.8462 1.85594L39.223 3.47838C38.7401 3.22526 38.1888 3.13387 37.6501 3.21765C37.1114 3.30143 36.6139 3.55595 36.2307 3.94375L36.1901 3.98439L39.8437 7.63886L39.8844 7.59822C40.2717 7.21459 40.5259 6.71694 40.6096 6.17827C40.6934 5.63961 40.6023 5.08827 40.3497 4.60516L41.973 2.98272C42.2555 2.70005 42.6155 2.50753 43.0075 2.42952C43.3994 2.35152 43.8057 2.39152 44.1749 2.54448C44.5442 2.69744 44.8597 2.95648 45.0817 3.28882C45.3036 3.62116 45.422 4.01187 45.4219 4.41152V26.2969H47.0156V4.41152C47.0148 3.45326 46.6338 2.53447 45.9563 1.85681C45.2787 1.17914 44.36 0.797947 43.4018 0.796892Z" fill="#FBEC9D"/>
<path d="M18.3281 3.1875C16.2792 3.1875 14.2764 3.79507 12.5728 4.93337C10.8692 6.07167 9.54139 7.68959 8.75732 9.58251C7.97324 11.4754 7.76809 13.5584 8.16781 15.5679C8.56753 17.5774 9.55416 19.4233 11.0029 20.8721C12.4517 22.3208 14.2976 23.3075 16.3071 23.7072C18.3166 24.1069 20.3996 23.9018 22.2925 23.1177C24.1854 22.3336 25.8033 21.0058 26.9416 19.3022C28.0799 17.5986 28.6875 15.5958 28.6875 13.5469C28.6875 10.7994 27.5961 8.16445 25.6533 6.22169C23.7106 4.27893 21.0756 3.1875 18.3281 3.1875ZM15.9375 7.96875C16.2527 7.96875 16.5609 8.06222 16.8229 8.23735C17.085 8.41247 17.2893 8.66138 17.4099 8.9526C17.5306 9.24382 17.5621 9.56427 17.5006 9.87343C17.4391 10.1826 17.2873 10.4666 17.0645 10.6895C16.8416 10.9123 16.5576 11.0641 16.2484 11.1256C15.9393 11.1871 15.6188 11.1556 15.3276 11.0349C15.0364 10.9143 14.7875 10.71 14.6123 10.4479C14.4372 10.1858 14.3438 9.87771 14.3438 9.5625C14.3438 9.13981 14.5117 8.73444 14.8106 8.43555C15.1094 8.13666 15.5148 7.96875 15.9375 7.96875ZM11.9531 14.3438C11.6379 14.3438 11.3298 14.2503 11.0677 14.0752C10.8056 13.9 10.6013 13.6511 10.4807 13.3599C10.3601 13.0687 10.3285 12.7482 10.39 12.4391C10.4515 12.1299 10.6033 11.8459 10.8262 11.623C11.0491 11.4002 11.333 11.2484 11.6422 11.1869C11.9514 11.1254 12.2718 11.1569 12.563 11.2776C12.8543 11.3982 13.1032 11.6025 13.2783 11.8646C13.4534 12.1267 13.5469 12.4348 13.5469 12.75C13.5469 13.1727 13.379 13.5781 13.0801 13.877C12.7812 14.1758 12.3758 14.3438 11.9531 14.3438ZM22.3125 17.9982C22.3126 18.2211 22.2465 18.439 22.1227 18.6244C21.9989 18.8097 21.8229 18.9542 21.617 19.0395C21.411 19.1248 21.1844 19.1471 20.9658 19.1036C20.7472 19.0601 20.5464 18.9527 20.3888 18.7951L19.6884 18.0946C19.5098 17.916 19.2977 17.7743 19.0643 17.6776C18.8309 17.5809 18.5808 17.5312 18.3281 17.5312C18.0755 17.5312 17.8254 17.5809 17.592 17.6776C17.3586 17.7743 17.1465 17.916 16.9679 18.0946L16.2674 18.7951C16.1098 18.9527 15.909 19.0601 15.6904 19.1036C15.4718 19.1471 15.2452 19.1248 15.0393 19.0395C14.8334 18.9542 14.6574 18.8097 14.5336 18.6244C14.4098 18.439 14.3437 18.2211 14.3438 17.9982V16.9272C14.3436 16.3607 14.4552 15.7996 14.6721 15.2762C14.8889 14.7528 15.2068 14.2773 15.6076 13.8768C15.9649 13.5195 16.389 13.2361 16.8558 13.0427C17.3226 12.8494 17.8229 12.7499 18.3281 12.7499C18.8334 12.7499 19.3337 12.8494 19.8005 13.0427C20.2673 13.2361 20.6914 13.5195 21.0487 13.8768C21.4493 14.2773 21.7672 14.7529 21.984 15.2763C22.2009 15.7997 22.3125 16.3607 22.3125 16.9272V17.9982ZM20.7188 11.1562C20.4035 11.1562 20.0954 11.0628 19.8333 10.8877C19.5712 10.7125 19.3669 10.4636 19.2463 10.1724C19.1257 9.88118 19.0941 9.56073 19.1556 9.25157C19.2171 8.94242 19.3689 8.65844 19.5918 8.43555C19.8147 8.21266 20.0987 8.06087 20.4078 7.99937C20.717 7.93788 21.0374 7.96944 21.3287 8.09007C21.6199 8.21069 21.8688 8.41497 22.0439 8.67706C22.219 8.93915 22.3125 9.24729 22.3125 9.5625C22.3125 9.98519 22.1446 10.3906 21.8457 10.6895C21.5468 10.9883 21.1414 11.1562 20.7188 11.1562ZM24.7031 14.3438C24.3879 14.3438 24.0798 14.2503 23.8177 14.0752C23.5556 13.9 23.3513 13.6511 23.2307 13.3599C23.1101 13.0687 23.0785 12.7482 23.14 12.4391C23.2015 12.1299 23.3533 11.8459 23.5762 11.623C23.7991 11.4002 24.083 11.2484 24.3922 11.1869C24.7014 11.1254 25.0218 11.1569 25.313 11.2776C25.6043 11.3982 25.8532 11.6025 26.0283 11.8646C26.2034 12.1267 26.2969 12.4348 26.2969 12.75C26.2969 13.1727 26.129 13.5781 25.8301 13.877C25.5312 14.1758 25.1258 14.3438 24.7031 14.3438Z" fill="#FBEC9D"/>
</svg>
