<svg width="64" height="64" viewBox="0 0 64 64" fill="none" xmlns="http://www.w3.org/2000/svg">
<g clip-path="url(#clip0_199_13682)">
<path d="M36.983 40.7307L4.85251 19.8991L5.57549 23.2891C6.75003 28.7861 9.99328 33.4977 14.7082 36.5539L31.7541 47.6057C31.7571 49.9559 32.8992 52.259 35.0134 53.6298C38.3297 55.7794 42.7832 54.8391 44.9405 51.512C47.093 48.1918 46.1431 43.7376 42.8221 41.5835C41.0238 40.4185 38.901 40.1917 36.983 40.7307ZM42.5312 49.9514C41.2419 51.9405 38.5669 52.5142 36.5743 51.2203C34.5829 49.9292 34.013 47.2566 35.3026 45.2646C36.5965 43.272 39.2687 42.7023 41.2611 43.9918C43.2533 45.2858 43.8231 47.958 42.5312 49.9514Z" fill="#5871C1"/>
<path d="M31.9521 29.6099C33.1662 24.1229 32.1697 18.4907 29.1465 13.7511L27.2822 10.8294L23.3791 28.4895L31.0941 33.4908L31.9521 29.6099Z" fill="#5871C1"/>
<path d="M20.0713 43.453L19.0185 48.215C17.0451 49.3027 15.8907 50.9742 15.4584 52.9247C14.6033 56.7891 17.0527 60.6285 20.9182 61.4835C24.7723 62.3372 28.6201 59.8933 29.4756 56.0242C30.0193 53.5627 29.2149 51.1203 27.5671 49.4444L27.7857 48.4549L20.0713 43.453ZM26.6729 55.4035C26.1575 57.7238 23.8499 59.1909 21.5378 58.6809C19.2183 58.1684 17.7493 55.8631 18.2614 53.5454C18.7749 51.2262 21.0668 49.7542 23.3957 50.2699C25.7149 50.7826 27.1848 53.0862 26.6729 55.4035Z" fill="#5871C1"/>
<path d="M41.3538 1.63333L29.3993 6.53369L30.4883 9.19025L38.4579 5.92335L39.5469 8.57991L31.5772 11.8468L32.6662 14.5034L40.6359 11.2365L41.7249 13.893L33.7552 17.1599L34.8441 19.8165L42.8138 16.5496L43.9028 19.2062L35.9331 22.4731L37.0221 25.1296L44.9918 21.8627L46.0807 24.5193L38.1111 27.7862L39.2 30.4428L47.1697 27.1758L48.2587 29.8324L40.289 33.0993L41.378 35.7559L49.3476 32.489L54.3206 44.6206C55.2213 46.8178 57.7417 47.8727 59.9389 46.972C62.1365 46.0712 63.191 43.5509 62.2903 41.3537L46.9721 3.98472C46.0714 1.78752 43.5514 0.732518 41.3538 1.63333Z" fill="#5871C1"/>
</g>
<defs>
<clipPath id="clip0_199_13682">
<rect width="49" height="49" fill="white" transform="translate(0 18.585) rotate(-22.2896)"/>
</clipPath>
</defs>
</svg>
