<svg width="28" height="28" viewBox="0 0 28 28" fill="none" xmlns="http://www.w3.org/2000/svg">
<path fill-rule="evenodd" clip-rule="evenodd" d="M14.0002 27.3C21.3456 27.3 27.3002 21.3454 27.3002 14C27.3002 6.65461 21.3456 0.699997 14.0002 0.699997C6.65481 0.699997 0.700195 6.65461 0.700195 14C0.700195 21.3454 6.65481 27.3 14.0002 27.3ZM13.2599 9.29172C12.7497 8.95162 12.0938 8.91991 11.5532 9.20922C11.0127 9.49852 10.6752 10.0619 10.6752 10.675V17.325C10.6752 17.9381 11.0127 18.5015 11.5532 18.7908C12.0938 19.0801 12.7497 19.0484 13.2599 18.7083L18.2474 15.3833C18.7099 15.0749 18.9877 14.5559 18.9877 14C18.9877 13.4441 18.7099 12.9251 18.2474 12.6167L13.2599 9.29172Z" fill="white"/>
</svg>
