<svg width="40" height="41" viewBox="0 0 40 41" fill="none" xmlns="http://www.w3.org/2000/svg">
<path d="M28.627 14.9393C31.1993 16.7846 34.3504 17.8703 37.7538 17.8703V11.2978C37.1097 11.298 36.4672 11.2306 35.8371 11.0966V16.27C32.434 16.27 29.2833 15.1843 26.7103 13.3392V26.7516C26.7103 33.4612 21.2905 38.9 14.6051 38.9C12.1107 38.9 9.79219 38.1432 7.86621 36.8452C10.0644 39.1009 13.1299 40.5001 16.5214 40.5001C23.2072 40.5001 28.6273 35.0613 28.6273 28.3515V14.9393H28.627ZM30.9915 8.30849C29.6769 6.86721 28.8138 5.00462 28.627 2.94545V2.1001H26.8107C27.2679 4.7173 28.8273 6.95328 30.9915 8.30849ZM12.0947 31.6965C11.3602 30.7301 10.9633 29.5478 10.9651 28.3322C10.9651 25.2635 13.4441 22.7754 16.5025 22.7754C17.0725 22.7752 17.6391 22.8628 18.1823 23.0358V16.3164C17.5475 16.2291 16.9068 16.1921 16.2664 16.2057V21.4357C15.7228 21.2627 15.156 21.1748 14.5859 21.1754C11.5274 21.1754 9.04857 23.6633 9.04857 26.7324C9.04857 28.9025 10.2877 30.7813 12.0947 31.6965Z" fill="#FF004F"/>
<path d="M26.7116 13.339C29.2845 15.1842 32.4352 16.2699 35.8383 16.2699V11.0965C33.9387 10.6904 32.2571 9.69417 30.9927 8.30849C28.8284 6.95314 27.2691 4.71716 26.8119 2.1001H22.0409V28.3512C22.0301 31.4115 19.5554 33.8895 16.5035 33.8895C14.7051 33.8895 13.1074 33.0292 12.0955 31.6965C10.2886 30.7813 9.04951 28.9024 9.04951 26.7325C9.04951 23.6637 11.5284 21.1755 14.5868 21.1755C15.1728 21.1755 15.7376 21.2671 16.2674 21.4358V16.2058C9.69948 16.342 4.4173 21.7277 4.4173 28.3513C4.4173 31.6578 5.73268 34.6553 7.86757 36.8454C9.79354 38.1432 12.112 38.9002 14.6065 38.9002C21.292 38.9002 26.7117 33.4611 26.7117 26.7516V13.339H26.7116Z" fill="black"/>
<path d="M35.8376 11.0963V9.69747C34.1246 9.70008 32.4453 9.21865 30.9919 8.30822C32.2785 9.72177 33.9726 10.6964 35.8376 11.0963ZM26.8112 2.09997C26.7676 1.84985 26.7341 1.59808 26.7108 1.34536V0.5H20.1234V26.7514C20.1128 29.8113 17.6382 32.2893 14.5861 32.2893C13.69 32.2893 12.844 32.0758 12.0947 31.6965C13.1066 33.0291 14.7043 33.8893 16.5027 33.8893C19.5543 33.8893 22.0295 31.4115 22.0402 28.3512V2.09997H26.8112ZM16.2669 16.2057V14.7165C15.7165 14.641 15.1615 14.6031 14.6059 14.6034C7.91986 14.6032 2.5 20.0423 2.5 26.7514C2.5 30.9575 4.6301 34.6645 7.86695 36.845C5.73206 34.655 4.41668 31.6574 4.41668 28.3511C4.41668 21.7275 9.69873 16.3419 16.2669 16.2057Z" fill="#00F2EA"/>
</svg>
