<svg width="41" height="41" viewBox="0 0 41 41" fill="none" xmlns="http://www.w3.org/2000/svg">
<g clip-path="url(#clip0_77_9336)">
<path d="M39.7035 10.8092C39.4773 9.9582 39.0317 9.18155 38.411 8.55694C37.7904 7.93233 37.0166 7.48168 36.1671 7.25009C33.0399 6.40918 20.5399 6.40918 20.5399 6.40918C20.5399 6.40918 8.03986 6.40918 4.91258 7.25009C4.06307 7.48168 3.28929 7.93233 2.66867 8.55694C2.04805 9.18155 1.60237 9.9582 1.37622 10.8092C0.539856 13.9501 0.539856 20.5001 0.539856 20.5001C0.539856 20.5001 0.539856 27.0501 1.37622 30.191C1.60237 31.042 2.04805 31.8186 2.66867 32.4432C3.28929 33.0678 4.06307 33.5185 4.91258 33.7501C8.03986 34.591 20.5399 34.591 20.5399 34.591C20.5399 34.591 33.0399 34.591 36.1671 33.7501C37.0166 33.5185 37.7904 33.0678 38.411 32.4432C39.0317 31.8186 39.4773 31.042 39.7035 30.191C40.5399 27.0501 40.5399 20.5001 40.5399 20.5001C40.5399 20.5001 40.5399 13.9501 39.7035 10.8092Z" fill="#FF0302"/>
<path d="M16.4489 26.4477V14.5522L26.9034 20.5L16.4489 26.4477Z" fill="#FEFEFE"/>
</g>
<defs>
<clipPath id="clip0_77_9336">
<rect width="40" height="40" fill="white" transform="translate(0.5 0.5)"/>
</clipPath>
</defs>
</svg>
