<svg width="41" height="41" viewBox="0 0 41 41" fill="none" xmlns="http://www.w3.org/2000/svg">
<g clip-path="url(#clip0_77_9319)">
<g clip-path="url(#clip1_77_9319)">
<path d="M3.00001 3.22166C-0.143327 6.48666 0.500007 9.955 0.500007 20.4917C0.500007 29.2417 -1.02666 38.0133 6.96334 40.0783C9.45834 40.72 31.565 40.72 34.0567 40.075C37.3833 39.2167 40.09 36.5183 40.46 31.8133C40.5117 31.1567 40.5117 9.83833 40.4583 9.16833C40.065 4.15666 36.98 1.26833 32.915 0.683329C31.9833 0.548329 31.7967 0.508329 27.0167 0.499996C10.0617 0.508329 6.34501 -0.246671 3.00001 3.22166Z" fill="url(#paint0_linear_77_9319)"/>
<path d="M20.4967 5.73154C14.445 5.73154 8.69835 5.19321 6.50335 10.8265C5.59668 13.1532 5.72835 16.1749 5.72835 20.5015C5.72835 24.2982 5.60668 27.8665 6.50335 30.1749C8.69335 35.8115 14.4867 35.2715 20.4933 35.2715C26.2883 35.2715 32.2634 35.8749 34.485 30.1749C35.3934 27.8249 35.26 24.8482 35.26 20.5015C35.26 14.7315 35.5784 11.0065 32.78 8.20987C29.9467 5.37654 26.115 5.73154 20.49 5.73154H20.4967ZM19.1733 8.39321C31.7967 8.37321 33.4033 6.96987 32.5167 26.4649C32.2017 33.3599 26.9517 32.6032 20.4983 32.6032C8.73168 32.6032 8.39335 32.2665 8.39335 20.4949C8.39335 8.58654 9.32668 8.39987 19.1733 8.38987V8.39321ZM28.38 10.8449C27.4017 10.8449 26.6083 11.6382 26.6083 12.6165C26.6083 13.5949 27.4017 14.3882 28.38 14.3882C29.3583 14.3882 30.1517 13.5949 30.1517 12.6165C30.1517 11.6382 29.3583 10.8449 28.38 10.8449ZM20.4967 12.9165C16.3083 12.9165 12.9133 16.3132 12.9133 20.5015C12.9133 24.6899 16.3083 28.0849 20.4967 28.0849C24.685 28.0849 28.0784 24.6899 28.0784 20.5015C28.0784 16.3132 24.685 12.9165 20.4967 12.9165ZM20.4967 15.5782C27.005 15.5782 27.0133 25.4249 20.4967 25.4249C13.99 25.4249 13.98 15.5782 20.4967 15.5782Z" fill="white"/>
</g>
</g>
<defs>
<linearGradient id="paint0_linear_77_9319" x1="3.07671" y1="37.9451" x2="40.2525" y2="5.76995" gradientUnits="userSpaceOnUse">
<stop stop-color="#FFDD55"/>
<stop offset="0.5" stop-color="#FF543E"/>
<stop offset="1" stop-color="#C837AB"/>
</linearGradient>
<clipPath id="clip0_77_9319">
<rect width="40" height="40" fill="white" transform="translate(0.5 0.5)"/>
</clipPath>
<clipPath id="clip1_77_9319">
<rect width="40" height="40" fill="white" transform="translate(0.5 0.5)"/>
</clipPath>
</defs>
</svg>
